<?xml version="1.0" encoding="utf-8"?>
<!-- Generator: Adobe Illustrator 26.5.0, SVG Export Plug-In . SVG Version: 6.00 Build 0)  -->
<svg version="1.1" id="Layer_1" xmlns="http://www.w3.org/2000/svg" xmlns:xlink="http://www.w3.org/1999/xlink" x="0px" y="0px"
	 viewBox="0 0 100 100" style="enable-background:new 0 0 100 100;" xml:space="preserve">
<style type="text/css">
	.st0{fill:#162D46;}
	.st1{fill:#EFAB12;}
</style>
<g>
	<g>
		<g>
			<path class="st0" d="M13.6,55.5c1.2,1.3,3,1.9,5.5,1.9c2.4,0,4.1-0.5,5.2-1.4c1.1-0.9,1.8-2,2.3-3.3c0.2-0.7,0.5-1.1,0.7-1.4
				c0.2-0.2,0.7-0.4,1.3-0.4h7.8c0.4,0,0.7,0.1,0.9,0.4c0.3,0.3,0.4,0.6,0.4,0.9c0,2.7-0.9,5.1-2.5,7.4c-1.6,2.2-3.9,4-6.7,5.3
				c-2.8,1.3-5.9,2-9.4,2c-3.7,0-6.9-0.7-9.7-2.2c-2.7-1.4-4.9-3.4-6.4-5.8c-1.5-2.4-2.3-5.2-2.5-8.1c-0.1-1.9-0.1-3.5-0.1-4.7
				c0-1.5,0-3.4,0.1-5.9c0.1-3,0.9-5.7,2.4-8.1c1.5-2.4,3.6-4.4,6.4-5.8s6-2.2,9.7-2.2c3.4,0,6.5,0.7,9.4,2c2.8,1.3,5.1,3.1,6.7,5.3
				c1.6,2.2,2.5,4.7,2.5,7.4c0,0.4-0.1,0.7-0.4,0.9c-0.3,0.3-0.6,0.4-0.9,0.4h-7.8c-0.6,0-1.1-0.1-1.3-0.4c-0.2-0.2-0.5-0.7-0.7-1.4
				c-0.4-1.3-1.2-2.4-2.3-3.3c-1.1-0.9-2.8-1.4-5.2-1.4c-2.5,0-4.3,0.6-5.5,1.9c-1.2,1.3-1.8,2.9-2,5c-0.1,1.4-0.1,3-0.1,5
				c0,1.9,0,3.6,0.1,5C11.8,52.5,12.4,54.2,13.6,55.5z"/>
			<path class="st0" d="M69.4,65.9c-0.4-0.3-0.7-0.6-0.9-0.9L54.9,44.6v20.1c0,0.4-0.2,0.8-0.5,1.1c-0.3,0.3-0.7,0.5-1.1,0.5h-7.8
				c-0.4,0-0.8-0.2-1.1-0.5c-0.3-0.3-0.5-0.7-0.5-1.1V26.2c0-0.4,0.2-0.8,0.5-1.1c0.3-0.3,0.7-0.5,1.1-0.5h6.2
				c0.6,0,1.1,0.1,1.5,0.4c0.4,0.3,0.7,0.6,0.9,0.9l13.6,20.4V26.2c0-0.4,0.2-0.8,0.5-1.1c0.3-0.3,0.7-0.5,1.1-0.5h7.8
				c0.4,0,0.8,0.2,1.1,0.5c0.3,0.3,0.5,0.7,0.5,1.1v38.5c0,0.4-0.2,0.8-0.5,1.1c-0.3,0.3-0.7,0.5-1.1,0.5h-6.2
				C70.4,66.3,69.8,66.2,69.4,65.9z"/>
		</g>
		<g>
			<path class="st1" d="M92.1,51.6c-4.1,0-7.4,3.3-7.4,7.4c0,3.3,2.2,6.1,5.1,7v1.7c0,1.1,0,2.2-0.3,2.6C89.3,70.5,88.6,71,86,71
				H0.5v5H86c3.3,0,5.5-0.7,7-2.2c1.8-1.8,1.8-4.3,1.8-6.1V66c2.8-1.1,4.8-3.8,4.8-6.9C99.5,55,96.2,51.6,92.1,51.6z"/>
			<path class="st1" d="M92.1,46.9c4.1,0,7.4-3.3,7.4-7.4c0-4.1-3.3-7.4-7.4-7.4c-4.1,0-7.4,3.3-7.4,7.4
				C84.7,43.6,88,46.9,92.1,46.9z"/>
		</g>
	</g>
</g>
</svg>
