<?xml version="1.0" encoding="utf-8"?>
<!-- Generator: Adobe Illustrator 26.5.0, SVG Export Plug-In . SVG Version: 6.00 Build 0)  -->
<svg version="1.1" id="Layer_1" xmlns="http://www.w3.org/2000/svg" xmlns:xlink="http://www.w3.org/1999/xlink" x="0px" y="0px"
	 viewBox="0 0 48 48" style="enable-background:new 0 0 48 48;" xml:space="preserve">
<style type="text/css">
	.st0{fill-rule:evenodd;clip-rule:evenodd;fill:#162D46;}
</style>
<path class="st0" d="M24,0.8C10.8,0.8,0.2,11.4,0.2,24.6c0,10.5,6.8,19.5,16.3,22.6c1.2,0.2,1.6-0.5,1.6-1.1c0-0.6,0-2.1,0-4.1
	c-6.6,1.4-8-3.2-8-3.2c-1.1-2.8-2.6-3.5-2.6-3.5c-2.2-1.5,0.2-1.4,0.2-1.4c2.4,0.2,3.7,2.5,3.7,2.5c2.1,3.6,5.6,2.6,6.9,2
	c0.2-1.5,0.8-2.6,1.5-3.2c-5.3-0.6-10.9-2.6-10.9-11.8c0-2.6,0.9-4.7,2.5-6.4c-0.2-0.6-1.1-3,0.2-6.3c0,0,2-0.6,6.6,2.4
	c1.9-0.5,3.9-0.8,6-0.8c2,0,4.1,0.3,6,0.8c4.6-3.1,6.5-2.4,6.5-2.4c1.3,3.3,0.5,5.7,0.2,6.3c1.5,1.7,2.5,3.8,2.5,6.4
	c0,9.2-5.6,11.2-10.9,11.8c0.9,0.7,1.6,2.2,1.6,4.4c0,3.2,0,5.8,0,6.5c0,0.6,0.4,1.4,1.6,1.1C41,44,47.8,35.1,47.8,24.6
	C47.8,11.4,37.2,0.8,24,0.8z"/>
</svg>
