<?xml version="1.0" encoding="utf-8"?>
<!-- Generator: Adobe Illustrator 26.5.0, SVG Export Plug-In . SVG Version: 6.00 Build 0)  -->
<svg version="1.1" id="Layer_1" xmlns="http://www.w3.org/2000/svg" xmlns:xlink="http://www.w3.org/1999/xlink" x="0px" y="0px"
	 viewBox="0 0 128 128" style="enable-background:new 0 0 128 128;" xml:space="preserve">
<style type="text/css">
	.st0{fill:#162D46;}
</style>
<path class="st0" d="M64,8C33.1,8,8,33.1,8,64c0,30.9,25.1,56,56,56c30.9,0,56-25.1,56-56C120,33.1,94.9,8,64,8z M93.8,49.4
	c-1.5,2.2-3.3,4.2-5.5,5.8c0,0.3,0,0.7,0,1c0,16.3-12.4,33.2-33.2,33.2c-6.3,0-12.6-1.8-17.9-5.2c-0.4-0.3-0.6-0.7-0.4-1.2
	c0.2-0.4,0.6-0.7,1.1-0.7c0.9,0.1,1.7,0.2,2.6,0.2c4.1,0,8-1.1,11.4-3.2c-4.2-1-7.5-4.1-8.8-8.2c-0.1-0.3,0-0.7,0.2-1
	c0.2-0.3,0.6-0.4,0.9-0.3c0.2,0,0.4,0.1,0.6,0.1c-3.5-2.2-5.7-6.1-5.7-10.4v-0.1c0-0.6,0.4-1,1-1c0.2,0,0.3,0,0.5,0.1
	c0.4,0.2,0.9,0.5,1.3,0.6c-1.8-2.2-2.7-4.9-2.7-7.8c0-2.2,0.6-4.3,1.7-6.2c0.3-0.5,0.9-0.6,1.4-0.4c0.1,0.1,0.2,0.1,0.3,0.2
	c5.3,6.5,13.1,10.6,21.4,11.4c-0.1-0.5-0.1-1-0.1-1.5c0-6.8,5.5-12.3,12.3-12.3c3.2,0,6.3,1.3,8.6,3.5c2.2-0.5,4.4-1.3,6.4-2.5
	c0.2-0.5,0.7-0.8,1.3-0.6c0.5,0.2,0.8,0.7,0.6,1.3c-0.1,0.2-0.2,0.4-0.4,0.6c-0.5,1.5-1.3,3-2.3,4.2c0.8-0.3,1.7-0.6,2.5-0.9
	c0.5-0.2,1.1,0,1.3,0.5C94,48.7,94,49.1,93.8,49.4L93.8,49.4z"/>
</svg>
