<?xml version="1.0" encoding="utf-8"?>
<!-- Generator: Adobe Illustrator 26.5.0, SVG Export Plug-In . SVG Version: 6.00 Build 0)  -->
<svg version="1.1" id="Capa_1" xmlns="http://www.w3.org/2000/svg" xmlns:xlink="http://www.w3.org/1999/xlink" x="0px" y="0px"
	 viewBox="0 0 20.8 20.8" style="enable-background:new 0 0 20.8 20.8;" xml:space="preserve">
<style type="text/css">
	.st0{fill:#162D46;}
</style>
<g>
	<path class="st0" d="M17.8,2c2,0.1,3,1.2,3,3.4c0,0.1,0,0.3,0,0.5c-0.1,1.9-1.5,4.5-4.2,7.8c-2.8,3.4-5.2,5.1-7.2,5.2
		c-1.2,0-2.2-1-3.1-3.2l-0.9-2.9L4.6,9.9C4,7.8,3.3,6.8,2.6,6.8C2.5,6.8,1.9,7.1,1,7.7L0,6.5l1.5-1.3L3,4c1.4-1.1,2.4-1.7,3.1-1.8
		c0.1,0,0.2,0,0.3,0c1.4,0,2.4,1,2.7,3.1c0.2,1.2,0.4,2.2,0.5,2.9C9.8,9,9.9,9.5,9.9,9.8c0.5,2,1,3,1.6,3c0.4,0,1.1-0.6,2-1.9
		c0.9-1.3,1.3-2.3,1.4-2.9c0-0.1,0-0.2,0-0.4c0-0.9-0.5-1.3-1.4-1.3c-0.5,0-1,0.1-1.5,0.3c1-3,2.9-4.5,5.7-4.5C17.7,2,17.7,2,17.8,2
		z"/>
</g>
</svg>
